<svg width="21" height="18" viewBox="0 0 21 18" fill="none" xmlns="http://www.w3.org/2000/svg">
<path d="M4.05001 14.7754C3.71668 14.5921 3.45835 14.3462 3.27501 14.0379C3.09168 13.7296 3.00001 13.3837 3.00001 13.0004V8.20039L0.600012 6.87539C0.416679 6.77539 0.283346 6.65039 0.200012 6.50039C0.116679 6.35039 0.0750122 6.18372 0.0750122 6.00039C0.0750122 5.81706 0.116679 5.65039 0.200012 5.50039C0.283346 5.35039 0.416679 5.22539 0.600012 5.12539L9.05001 0.525391C9.20001 0.442057 9.35418 0.379557 9.51251 0.337891C9.67085 0.296224 9.83335 0.275391 10 0.275391C10.1667 0.275391 10.3292 0.296224 10.4875 0.337891C10.6458 0.379557 10.8 0.442057 10.95 0.525391L20.475 5.72539C20.6417 5.80872 20.7708 5.92956 20.8625 6.08789C20.9542 6.24622 21 6.41706 21 6.60039V13.0004C21 13.2837 20.9042 13.5212 20.7125 13.7129C20.5208 13.9046 20.2833 14.0004 20 14.0004C19.7167 14.0004 19.4792 13.9046 19.2875 13.7129C19.0958 13.5212 19 13.2837 19 13.0004V7.10039L17 8.20039V13.0004C17 13.3837 16.9083 13.7296 16.725 14.0379C16.5417 14.3462 16.2833 14.5921 15.95 14.7754L10.95 17.4754C10.8 17.5587 10.6458 17.6212 10.4875 17.6629C10.3292 17.7046 10.1667 17.7254 10 17.7254C9.83335 17.7254 9.67085 17.7046 9.51251 17.6629C9.35418 17.6212 9.20001 17.5587 9.05001 17.4754L4.05001 14.7754ZM10 9.70039L16.85 6.00039L10 2.30039L3.15001 6.00039L10 9.70039ZM10 15.7254L15 13.0254V9.25039L10.975 11.4754C10.825 11.5587 10.6667 11.6212 10.5 11.6629C10.3333 11.7046 10.1667 11.7254 10 11.7254C9.83335 11.7254 9.66668 11.7046 9.50001 11.6629C9.33335 11.6212 9.17501 11.5587 9.02501 11.4754L5.00001 9.25039V13.0254L10 15.7254Z" fill="#1A1A1A"/>
</svg>
