<svg width="32" height="32" viewBox="0 0 32 32" fill="none" xmlns="http://www.w3.org/2000/svg">
<path d="M0 26.4923L3.85534 29.0809C3.81381 21.036 4.23483 16.9628 7.16292 9.85886C7.93513 13.9618 8.15695 15.4342 8.30056 17.074C9.65496 14.2217 10.3788 12.777 11.2921 11.8417V31.6695L15 32V0.936317C12.9881 2.57311 11.8978 3.57899 10.1545 5.83821L7.79494 0C5.02169 3.98033 3.8539 6.50199 2.23315 11.346C0.614501 16.6556 0.252644 20.075 0 26.4923Z" fill="#349CFE"/>
<path d="M31.4051 21.0818C30.0789 22.0466 29.3414 22.5499 28.0057 23.2122L28.1969 25.2982C25.4547 26.6018 23.8321 27.1467 20.7606 27.7171V8.12205C22.3157 9.70206 22.9641 10.6097 23.9051 12.2497L22.2904 13.1817C23.1517 14.4827 23.5107 15.2114 24.0326 16.5104C26.2225 15.3871 27.2593 14.6555 28.7918 13.1817C25.5651 7.45707 23.4742 4.60717 17 0V32C23.5845 31.5808 26.922 30.7127 32 27.6061C31.9961 25.0839 31.8721 23.6565 31.4051 21.0818Z" fill="#383838"/>
</svg>
