<svg width="14" height="16" viewBox="0 0 14 16" fill="none" xmlns="http://www.w3.org/2000/svg">
<path d="M6.16658 15.4585C4.48603 15.2502 3.09367 14.5175 1.9895 13.2606C0.885335 12.0036 0.333252 10.5279 0.333252 8.8335C0.333252 7.91683 0.513807 7.03836 0.874919 6.19808C1.23603 5.3578 1.74992 4.62516 2.41659 4.00016L3.60409 5.18766C3.07631 5.65988 2.677 6.2085 2.40617 6.8335C2.13534 7.4585 1.99992 8.12516 1.99992 8.8335C1.99992 10.0557 2.38881 11.1356 3.16659 12.0731C3.94436 13.0106 4.94436 13.5835 6.16658 13.7918V15.4585ZM7.83325 15.4585V13.7918C9.04158 13.5696 10.0381 12.9932 10.8228 12.0627C11.6076 11.1321 11.9999 10.0557 11.9999 8.8335C11.9999 7.44461 11.5138 6.26405 10.5416 5.29183C9.56936 4.31961 8.38881 3.8335 6.99992 3.8335H6.93742L7.85408 4.75016L6.68742 5.91683L3.77075 3.00016L6.68742 0.0834961L7.85408 1.25016L6.93742 2.16683H6.99992C8.86103 2.16683 10.4374 2.81266 11.7291 4.10433C13.0208 5.396 13.6666 6.97238 13.6666 8.8335C13.6666 10.5141 13.1145 11.9828 12.0103 13.2397C10.9062 14.4967 9.51381 15.2363 7.83325 15.4585Z" fill="black"/>
</svg>
